HIERARCHY
ROOT base
{
	OFFSET 0.0 0.0 0.0
	CHANNELS 6 Xposition Yposition Zposition Zrotation Yrotation Xrotation
	JOINT root
	{
		OFFSET 0 0 0
		CHANNELS 6 Xposition Yposition Zposition Zrotation Yrotation Xrotation
		JOINT chest
		{
			OFFSET 0 4.72302 0
			CHANNELS 3 Zrotation Yrotation Xrotation
			JOINT neck
			{
				OFFSET 0 4.47788 0
				CHANNELS 3 Zrotation Yrotation Xrotation
				End Site
				{
					OFFSET 0.0 0.0 0.0
				}
			}
			JOINT right_shoulder
			{
				OFFSET -0.481 4.87 3.6622
				CHANNELS 3 Zrotation Yrotation Xrotation
				JOINT right_elbow
				{
					OFFSET 0 -5.49576 0
					CHANNELS 3 Zrotation Yrotation Xrotation
					JOINT right_wrist
					{
						OFFSET 0 -5.17894 0
						CHANNELS 3 Zrotation Yrotation Xrotation
						End Site
						{
							OFFSET 0.0 0.0 0.0
						}
					}
				}
			}
			JOINT left_shoulder
			{
				OFFSET -0.481 4.87 -3.6622
				CHANNELS 3 Zrotation Yrotation Xrotation
				JOINT left_elbow
				{
					OFFSET 0 -5.49576 0
					CHANNELS 3 Zrotation Yrotation Xrotation
					JOINT left_wrist
					{
						OFFSET 0 -5.17894 0
						CHANNELS 3 Zrotation Yrotation Xrotation
						End Site
						{
							OFFSET 0.0 0.0 0.0
						}
					}
				}
			}
		}
		JOINT right_hip
		{
			OFFSET 0 0 1.69774
			CHANNELS 3 Zrotation Yrotation Xrotation
			JOINT right_knee
			{
				OFFSET 0 -8.43092 0
				CHANNELS 3 Zrotation Yrotation Xrotation
				JOINT right_ankle
				{
					OFFSET 0 -8.1974 0
					CHANNELS 3 Zrotation Yrotation Xrotation
					End Site
					{
						OFFSET 0.0 0.0 0.0
					}
				}
			}
		}
		JOINT left_hip
		{
			OFFSET 0 0 -1.69774
			CHANNELS 3 Zrotation Yrotation Xrotation
			JOINT left_knee
			{
				OFFSET 0 -8.43092 0
				CHANNELS 3 Zrotation Yrotation Xrotation
				JOINT left_ankle
				{
					OFFSET 0 -8.1974 0
					CHANNELS 3 Zrotation Yrotation Xrotation
					End Site
					{
						OFFSET 0.0 0.0 0.0
					}
				}
			}
		}
	}
	JOINT red_arrow
	{
		OFFSET 0 0 0
		CHANNELS 3 Zrotation Yrotation Xrotation
		End Site
		{
			OFFSET 0.0 0.0 0.0
		}
	}
	JOINT blue_arrow
	{
		OFFSET 0 0 0
		CHANNELS 3 Zrotation Yrotation Xrotation
		End Site
		{
			OFFSET 0.0 0.0 0.0
		}
	}
}
MOTION
Frames: 8
Frame Time: 0.0333333333333333
0 18.08466 0 0 0 0 0 0 0 0 -90 0 0 0 0 0 0 0 0 0 -90 0 0 0 0 0 0 0 0 90 0 0 0 0 0 0 0 0 0 0 0 0 0 0 0 0 0 0 0 0 0 0 0 0 0 0 0 0 0 0
1.58945657014847 0 -0.0719956241548061 0 -8.56804641601722 0 0 16.0370910167694 0 -27.5607090025699 -4.77083202219528E-15 -11.211807180253 0.0673187825000476 0.720271693358261 8.51452150483975 -2.237982263575 -2.36951694765303 2.03563146458822 -0.414516474295649 22.4205456442389 -33.4945642810619 74.5602506026376 0 0 0 0 0 -24.5158346187777 -23.6138152555837 37.8367724190589 65.8819761677595 0 0 0 0 0 54.1971030812036 -2.59462201868219 10.9353605851417 -44.8163955220654 0 0 18.5173101838647 4.33986423111407 -1.02421483699732 35.0760805681414 3.96409461345801 13.5121406970793 -97.7360591735422 0 0 -1.17739665763006 9.72512603405165 -16.4902576357541 0 0 0 0 0 0
3.47019199132919 0 -0.0928022339940071 0 -8.94004055225137 0 0 16.4523754239082 0 -28.975051702092 -6.19055957061947 -12.9015383456049 4.16202135838883 3.77816829020504 7.59335377364483 -5.18326950118691 -4.34924235541814 2.9567846211732 17.1225354461681 33.2128302074879 -38.2311406136162 74.3744353062674 0 0 0 0 0 -47.6763419976553 -24.6165186793462 47.2998042471177 58.540895678019 0 0 0 0 0 44.4553636964454 -1.67519045059413 14.8056502064092 -34.4154415105779 0 0 19.7202445709173 9.35868193133011 -0.490813002279054 52.6153667430148 -1.90389610179818 19.8863373202046 -102.926586301213 0 0 -1.66518058168199 19.8008850992912 -23.7546185325908 0 0 0 0 0 0
5.80442842245102 0 -0.255392071604729 0 -9.05835200970431 0 0 16.9746000528336 0 -27.3484948839955 -1.99688123367698 -12.3883887000808 2.74101888717879 2.63081885163817 4.56294312092655 -3.28817710725961 -6.09876519038841 2.61726540012249 29.4639904320409 35.2759144014042 -37.5024433469225 80.5184500118824 0 0 0 0 0 -61.7660738134536 -17.1568084502238 52.8306689261343 66.6332286745692 0 0 0 0 0 25.4884452111145 -0.677392144364651 10.9585390819106 -16.4970429872437 0 0 15.8334558504971 10.1152597833522 0.456424663603377 61.7872921553944 -8.0172134071505 16.7369799075663 -98.4827900951214 0 0 -5.57264674311644 25.4274821380605 -31.3187654603594 0 0 0 0 0 0
7.93266988396645 0 -0.592263922095299 0 -8.91819109924175 0 0 17.4653195858002 0 -28.5855101486045 2.33882673621246 -11.4060016056088 1.43834592729435 1.82764873813662 2.4892738740217 -1.37692959552712 -3.749135734518 1.78704946630426 34.5953377957284 35.1139712254722 -38.4539372297993 90.3293200753103 0 0 0 0 0 -72.3321226756219 -6.37635521507948 53.258857957968 78.2347352817536 0 0 0 0 0 16.2142484804437 0.0888454534589512 7.29459770284798 -8.35569826075676 0 0 1.05840328474827 7.04874948485005 -0.688020385074376 71.8246565684275 -9.21492535642153 10.9650423484959 -85.2653973340954 0 0 -3.68081534057338 24.7186043917936 -30.7549893124032 0 0 0 0 0 0
10.1790939927101 0 -1.05575996041298 0 -8.58470262865529 0 0 17.8602543592453 0 -27.6853345170022 5.61578983120465 -9.88017694428161 -2.35085955632129 1.72831019678915 1.26751323200143 -2.86864041369249 -2.12905983354204 0.316860794626888 34.6799787683309 33.1043283258309 -40.8680210086366 96.2207270646615 0 0 0 0 0 -72.9633075937342 0.19709655329023 48.209307952044 82.633547861971 0 0 0 0 0 6.49673911504216 1.27928596785856 3.39589002820412 -1.41089189972544 0 0 -21.5791717996281 7.38301876734551 0.3744227780187 72.2138268421152 -5.64661761091369 6.29198227422765 -66.399041978497 0 0 -0.139277736489223 24.04197383374 -28.7691806441878 0 0 0 0 0 0
12.5289463639259 0 -1.54578660279512 0 -8.12421169543974 0 0 17.9515856027603 0 -25.8558050439424 7.88508748495241 -7.99305629893556 -4.00967751706974 1.54383417479376 0.75092666833599 -5.69045193329346 -2.9115419796797 -2.73855543719719 35.7728610538018 33.2127158092933 -45.9955134961706 94.7876440937661 0 0 0 0 0 -70.6645653185282 6.30313516003379 43.3608924125633 82.2498210042105 0 0 0 0 0 -2.90607653442621 3.07621720046598 -0.17529837959004 -0.141008815187877 0 0 -31.1011591470446 9.26821173877523 2.42652818703003 68.8767173575566 -2.79427272472511 2.68522606883751 -48.1358025718945 0 0 3.59777124095211 23.2108150569335 -24.3542698817465 0 0 0 0 0 0
14.9574902355671 0 -1.96366181001067 0 -7.62003092145514 0 0 17.7675900936127 0 -23.0709166888087 8.82584899761627 -6.39545143850807 -5.17528384971007 1.62735932706374 0.212587386362922 -7.19025169990974 -5.21447742110194 -6.64501466432801 36.9729249198456 33.4749615441441 -50.1099557235412 93.8556647815179 0 0 0 0 0 -68.2639034668791 13.4923461841222 40.0529033261472 81.2241724776848 0 0 0 0 0 -10.7252318643691 3.43644684688163 -2.057811273034 -5.20013464251159 0 0 -33.7836118699239 10.4138214990964 3.54159840618346 64.176862970962 -1.63884012064915 0.690541855656195 -35.0132025912645 0 0 6.87197218639341 21.2716086422618 -19.0376900112323 0 0 0 0 0 0
